<?xml version="1.0" encoding="UTF-8" standalone="no"?>
<!DOCTYPE svg PUBLIC "-//W3C//DTD SVG 1.1//EN" "http://www.w3.org/Graphics/SVG/1.1/DTD/svg11.dtd">
<svg width="100%" height="100%" viewBox="0 0 149 164" version="1.1" xmlns="http://www.w3.org/2000/svg" xmlns:xlink="http://www.w3.org/1999/xlink" xml:space="preserve" xmlns:serif="http://www.serif.com/" style="fill-rule:evenodd;clip-rule:evenodd;stroke-linejoin:round;stroke-miterlimit:2;">
    <g transform="matrix(1,0,0,1,-9989.77,-7053.37)">
        <g transform="matrix(2.24694,0,0,2.24694,-177.566,-4396.64)">
            <path d="M4543.9,5108.8L4524.98,5108.8L4524.98,5168.69L4558.2,5168.69C4567.99,5168.69 4575.93,5160.76 4575.93,5150.97C4575.93,5150.97 4575.93,5150.97 4575.93,5150.97C4575.93,5149.64 4575.78,5148.35 4575.51,5147.1C4584.81,5142.89 4591.28,5133.53 4591.28,5122.65L4591.28,5122.65C4591.28,5107.84 4579.27,5095.83 4564.46,5095.83L4543.9,5095.83L4543.9,5108.8ZM4531.23,5115.05L4558.2,5115.05C4564.54,5115.05 4569.68,5120.19 4569.68,5126.53C4569.68,5126.53 4569.68,5126.53 4569.68,5126.53C4569.68,5130.55 4567.61,5134.08 4564.49,5136.13L4560.51,5138.75L4564.49,5141.36C4567.61,5143.41 4569.68,5146.95 4569.68,5150.97C4569.68,5150.97 4569.68,5150.97 4569.68,5150.97C4569.68,5157.31 4564.54,5162.44 4558.2,5162.44C4558.2,5162.44 4531.23,5162.44 4531.23,5162.44L4531.23,5115.05Z" style="fill:white;"/>
        </g>
    </g>
</svg>
