<?xml version="1.0" encoding="UTF-8" standalone="no"?>
<!DOCTYPE svg PUBLIC "-//W3C//DTD SVG 1.1//EN" "http://www.w3.org/Graphics/SVG/1.1/DTD/svg11.dtd">
<svg width="100%" height="100%" viewBox="0 0 386 92" version="1.1" xmlns="http://www.w3.org/2000/svg" xmlns:xlink="http://www.w3.org/1999/xlink" xml:space="preserve" xmlns:serif="http://www.serif.com/" style="fill-rule:evenodd;clip-rule:evenodd;stroke-linejoin:round;stroke-miterlimit:2;">
    <g transform="matrix(1,0,0,1,-9909.2,-7552.81)">
        <g transform="matrix(1,0,0,1,981.99,836.007)">
            <g transform="matrix(1.26015,0,0,1.26015,3225.08,295.31)">
                <path d="M4543.9,5108.8L4524.98,5108.8L4524.98,5168.69L4558.2,5168.69C4567.99,5168.69 4575.93,5160.76 4575.93,5150.97C4575.93,5150.97 4575.93,5150.97 4575.93,5150.97C4575.93,5149.64 4575.78,5148.35 4575.51,5147.1C4584.81,5142.89 4591.28,5133.53 4591.28,5122.65L4591.28,5122.65C4591.28,5107.84 4579.27,5095.83 4564.46,5095.83L4543.9,5095.83L4543.9,5108.8ZM4531.23,5115.05L4558.2,5115.05C4564.54,5115.05 4569.68,5120.19 4569.68,5126.53C4569.68,5126.53 4569.68,5126.53 4569.68,5126.53C4569.68,5130.55 4567.61,5134.08 4564.49,5136.13L4560.51,5138.75L4564.49,5141.36C4567.61,5143.41 4569.68,5146.95 4569.68,5150.97C4569.68,5150.97 4569.68,5150.97 4569.68,5150.97C4569.68,5157.31 4564.54,5162.44 4558.2,5162.44C4558.2,5162.44 4531.23,5162.44 4531.23,5162.44L4531.23,5115.05Z" style="fill:white;"/>
            </g>
            <g transform="matrix(2.24694,0,0,2.24694,-7680.35,-9477.99)">
                <g transform="matrix(0.336503,0,0,0.336503,5526.96,6494.58)">
                    <path d="M5696.93,2193.18L5712.64,2193.18C5720.48,2193.18 5724.91,2189.02 5724.91,2183.32C5724.91,2178.18 5721.2,2174.97 5716.97,2174.8L5716.97,2174.45C5720.8,2173.64 5723.53,2170.86 5723.53,2166.8C5723.53,2161.45 5719.46,2157.82 5711.53,2157.82L5696.93,2157.82L5696.93,2193.18ZM5705.25,2186.43L5705.25,2177.84L5710.84,2177.84C5714.17,2177.84 5716.23,2179.61 5716.23,2182.38C5716.23,2184.91 5714.48,2186.43 5710.69,2186.43L5705.25,2186.43ZM5705.25,2172.41L5705.25,2164.45L5710.27,2164.45C5713.21,2164.45 5715.05,2165.97 5715.05,2168.37C5715.05,2170.91 5712.98,2172.41 5710.13,2172.41L5705.25,2172.41Z" style="fill:white;fill-rule:nonzero;"/>
                </g>
                <g transform="matrix(0.336503,0,0,0.336503,5526.96,6494.58)">
                    <path d="M5741.23,2193.68C5748.12,2193.68 5752.64,2190.35 5753.62,2185.19L5745.96,2185.19C5745.3,2186.74 5743.63,2187.71 5741.38,2187.71C5738.05,2187.71 5735.98,2185.5 5735.98,2182.12L5735.98,2181.94L5753.73,2181.94L5753.73,2179.84C5753.73,2171.05 5748.38,2166.32 5740.97,2166.32C5732.99,2166.32 5727.86,2171.83 5727.86,2180.03C5727.86,2188.51 5732.92,2193.68 5741.23,2193.68ZM5735.98,2177.09C5736.12,2174.37 5738.24,2172.29 5741.12,2172.29C5743.99,2172.29 5746.03,2174.3 5746.06,2177.09L5735.98,2177.09Z" style="fill:white;fill-rule:nonzero;"/>
                </g>
                <g transform="matrix(0.336503,0,0,0.336503,5526.82,6494.58)">
                    <path d="M5761.96,2203.13C5768.16,2203.13 5771.17,2200.12 5772.65,2195.79L5782.7,2166.66L5774.03,2166.66L5768.96,2185.69L5768.68,2185.69L5763.67,2166.66L5755.06,2166.66L5764.5,2194.12L5764.17,2194.93C5763.48,2196.71 5762.41,2196.84 5761.05,2196.84C5760.08,2196.84 5758.94,2196.83 5757.84,2196.74L5757.84,2202.99C5758.93,2203.09 5760.38,2203.13 5761.96,2203.13Z" style="fill:white;fill-rule:nonzero;"/>
                </g>
                <g transform="matrix(0.336503,0,0,0.336503,5526.71,6494.58)">
                    <path d="M5797.22,2193.68C5805.51,2193.68 5810.55,2188.18 5810.55,2180.01C5810.55,2171.83 5805.51,2166.32 5797.22,2166.32C5788.93,2166.32 5783.89,2171.83 5783.89,2180.01C5783.89,2188.18 5788.93,2193.68 5797.22,2193.68ZM5792.26,2179.96C5792.26,2175.52 5794.03,2172.45 5797.27,2172.45C5800.41,2172.45 5802.17,2175.52 5802.17,2179.96C5802.17,2184.4 5800.41,2187.45 5797.27,2187.45C5794.03,2187.45 5792.26,2184.4 5792.26,2179.96Z" style="fill:white;fill-rule:nonzero;"/>
                </g>
                <g transform="matrix(0.336503,0,0,0.336503,5526.7,6494.58)">
                    <path d="M5822.94,2178.03C5822.96,2174.92 5824.77,2173.09 5827.5,2173.09C5830.25,2173.09 5831.87,2174.88 5831.85,2177.87L5831.85,2193.18L5840.07,2193.18L5840.07,2176.28C5840.09,2170.27 5836.46,2166.32 5830.89,2166.32C5826.97,2166.32 5824.02,2168.3 5822.84,2171.5L5822.55,2171.5L5822.55,2166.66L5814.73,2166.66L5814.73,2193.18L5822.94,2193.18L5822.94,2178.03Z" style="fill:white;fill-rule:nonzero;"/>
                </g>
                <g transform="matrix(0.336503,0,0,0.336503,5526.35,6494.58)">
                    <path d="M5854.89,2193.58C5858.94,2193.58 5861.29,2191.3 5862.36,2188.9L5862.62,2188.9L5862.62,2193.18L5870.75,2193.18L5870.75,2157.82L5862.53,2157.82L5862.53,2171.19L5862.36,2171.19C5861.36,2168.81 5859.08,2166.32 5854.85,2166.32C5849.26,2166.32 5844.25,2170.64 5844.25,2179.94C5844.25,2188.94 5848.98,2193.58 5854.89,2193.58ZM5852.69,2179.92C5852.69,2175.59 5854.45,2172.76 5857.68,2172.76C5860.88,2172.76 5862.72,2175.5 5862.72,2179.92C5862.72,2184.29 5860.86,2187.12 5857.68,2187.12C5854.47,2187.12 5852.69,2184.28 5852.69,2179.92Z" style="fill:white;fill-rule:nonzero;"/>
                </g>
            </g>
            <g transform="matrix(2.24694,0,0,2.24694,-7680.35,-9477.99)">
                <g transform="matrix(0.336503,0,0,0.336503,5526.96,6494.58)">
                    <path d="M5888.98,2193.18C5899.76,2193.18 5906.42,2186.54 5906.42,2175.49C5906.42,2164.45 5899.76,2157.82 5889,2157.82L5876.03,2157.82L5876.03,2193.18L5888.98,2193.18ZM5884.36,2186.07L5884.36,2164.94L5888.57,2164.94C5894.75,2164.94 5898.07,2167.82 5898.07,2175.49C5898.07,2183.17 5894.75,2186.07 5888.65,2186.07L5884.36,2186.07Z" style="fill:white;fill-rule:nonzero;"/>
                </g>
                <g transform="matrix(0.336503,0,0,0.336503,5526.63,6494.58)">
                    <path d="M5923.53,2193.68C5930.42,2193.68 5934.94,2190.35 5935.93,2185.19L5928.26,2185.19C5927.61,2186.74 5925.93,2187.71 5923.69,2187.71C5920.35,2187.71 5918.28,2185.5 5918.28,2182.12L5918.28,2181.94L5936.03,2181.94L5936.03,2179.84C5936.03,2171.05 5930.68,2166.32 5923.27,2166.32C5915.3,2166.32 5910.17,2171.83 5910.17,2180.03C5910.17,2188.51 5915.23,2193.68 5923.53,2193.68ZM5918.28,2177.09C5918.42,2174.37 5920.54,2172.29 5923.43,2172.29C5926.29,2172.29 5928.33,2174.3 5928.36,2177.09L5918.28,2177.09Z" style="fill:white;fill-rule:nonzero;"/>
                </g>
                <g transform="matrix(0.336503,0,0,0.336503,5526.66,6494.58)">
                    <path d="M5940.21,2193.18L5948.43,2193.18L5948.43,2177.45C5948.43,2174.76 5950.03,2173.04 5952.28,2173.04C5954.52,2173.04 5956.01,2174.59 5956.01,2177.08L5956.01,2193.18L5963.93,2193.18L5963.93,2177.28C5963.93,2174.71 5965.36,2173.04 5967.76,2173.04C5969.96,2173.04 5971.51,2174.47 5971.51,2177.18L5971.51,2193.18L5979.75,2193.18L5979.75,2175.33C5979.75,2169.7 5976.28,2166.32 5971.29,2166.32C5967.38,2166.32 5964.31,2168.37 5963.29,2171.5L5963.02,2171.5C5962.29,2168.34 5959.48,2166.32 5955.8,2166.32C5952.17,2166.32 5949.43,2168.29 5948.32,2171.5L5948.03,2171.5L5948.03,2166.66L5940.21,2166.66L5940.21,2193.18Z" style="fill:white;fill-rule:nonzero;"/>
                </g>
                <g transform="matrix(0.336503,0,0,0.336503,5526.62,6494.58)">
                    <path d="M5984.86,2193.18L5993.07,2193.18L5993.07,2166.66L5984.86,2166.66L5984.86,2193.18ZM5984.7,2159.53C5984.7,2161.73 5986.62,2163.51 5988.98,2163.51C5991.31,2163.51 5993.25,2161.73 5993.25,2159.53C5993.25,2157.34 5991.31,2155.56 5988.98,2155.56C5986.62,2155.56 5984.7,2157.34 5984.7,2159.53Z" style="fill:white;fill-rule:nonzero;"/>
                </g>
                <g transform="matrix(0.336503,0,0,0.336503,5526.62,6494.58)">
                    <path d="M6013.59,2174.87L6021.22,2174.87C6020.91,2169.58 6016.54,2166.32 6009.41,2166.32C6002.26,2166.32 5997.75,2169.46 5997.77,2174.74C5997.75,2178.77 6000.4,2181.41 6005.61,2182.39L6010.13,2183.24C6012.43,2183.7 6013.47,2184.43 6013.5,2185.64C6013.47,2187.07 6011.93,2187.93 6009.7,2187.93C6007.25,2187.93 6005.63,2186.93 6005.32,2185.02L5997.1,2185.02C5997.67,2190.3 6002.09,2193.68 6009.67,2193.68C6016.83,2193.68 6021.82,2190.16 6021.86,2184.74C6021.82,2180.87 6019.28,2178.58 6014.03,2177.56L6008.99,2176.59C6006.7,2176.13 6005.92,2175.3 6005.95,2174.28C6005.92,2172.9 6007.53,2172 6009.56,2172C6011.74,2172 6013.35,2173.11 6013.59,2174.87Z" style="fill:white;fill-rule:nonzero;"/>
                </g>
                <g transform="matrix(0.336503,0,0,0.336503,5526.7,6494.58)">
                    <path d="M6038.19,2193.68C6045.08,2193.68 6049.6,2190.35 6050.59,2185.19L6042.92,2185.19C6042.26,2186.74 6040.59,2187.71 6038.35,2187.71C6035.01,2187.71 6032.94,2185.5 6032.94,2182.12L6032.94,2181.94L6050.69,2181.94L6050.69,2179.84C6050.69,2171.05 6045.34,2166.32 6037.93,2166.32C6029.95,2166.32 6024.83,2171.83 6024.83,2180.03C6024.83,2188.51 6029.89,2193.68 6038.19,2193.68ZM6032.94,2177.09C6033.08,2174.37 6035.2,2172.29 6038.09,2172.29C6040.95,2172.29 6042.99,2174.3 6043.02,2177.09L6032.94,2177.09Z" style="fill:white;fill-rule:nonzero;"/>
                </g>
            </g>
        </g>
    </g>
</svg>
